<?xml version="1.0" standalone="no"?>
<!DOCTYPE svg PUBLIC "-//W3C//DTD SVG 20010904//EN"
 "http://www.w3.org/TR/2001/REC-SVG-20010904/DTD/svg10.dtd">
<svg version="1.0" xmlns="http://www.w3.org/2000/svg"
 width="1024.000000pt" height="1024.000000pt" viewBox="0 0 1024.000000 1024.000000"
 preserveAspectRatio="xMidYMid meet">

<g transform="translate(0.000000,1024.000000) scale(0.100000,-0.100000)"
fill="#000000" stroke="none">
<path d="M4586 8229 c-118 -17 -243 -95 -315 -196 -21 -29 -41 -50 -43 -47
-15 15 -157 20 -216 8 -213 -44 -361 -261 -323 -474 26 -144 112 -270 232
-339 30 -17 49 -31 42 -31 -19 0 -255 -162 -343 -237 -187 -156 -368 -361
-482 -546 -54 -87 -158 -297 -202 -409 -144 -368 -184 -853 -105 -1273 45
-234 197 -613 304 -758 l35 -47 1957 2 1957 3 43 60 c23 33 76 127 118 208
223 440 284 943 179 1464 -93 460 -320 871 -671 1214 -316 310 -689 523 -1113
635 l-35 10 -5 115 c-5 104 -9 122 -38 182 -40 80 -116 158 -192 195 -51 25
-64 27 -182 27 l-127 0 -29 40 c-106 145 -275 219 -446 194z m167 -149 c174
-65 229 -221 152 -435 -4 -11 13 16 38 60 88 159 217 207 364 135 109 -54 161
-148 151 -275 -12 -141 -106 -248 -260 -299 -17 -5 -18 -28 -18 -292 l0 -286
-32 6 c-333 70 -597 74 -893 15 -55 -11 -110 -23 -122 -26 l-23 -5 -2 293 -3
293 -30 6 c-87 18 -167 82 -216 172 -31 57 -34 70 -33 143 0 96 28 159 94 219
53 48 101 68 165 70 122 3 215 -59 274 -183 19 -39 36 -69 38 -67 2 1 -9 34
-23 72 -21 57 -25 81 -21 135 13 197 211 320 400 249z m897 -847 c37 -47 2
-113 -60 -113 -33 0 -70 40 -70 76 0 62 90 87 130 37z m285 -292 c76 -33 122
-69 162 -125 20 -28 38 -53 40 -55 1 -2 13 3 26 12 23 15 128 50 133 44 2 -1
-26 -40 -62 -86 -58 -76 -63 -86 -49 -101 8 -9 15 -35 15 -58 l0 -42 -405 0
c-400 0 -405 0 -405 20 0 33 27 88 48 99 13 7 88 11 191 11 l171 0 0 34 c0 23
-6 36 -17 41 -10 5 -88 10 -174 13 l-157 4 21 37 c27 45 100 117 141 138 94
49 229 55 321 14z m-2151 -288 c8 -47 11 -52 41 -57 18 -4 40 -15 49 -25 15
-16 15 -19 1 -31 -8 -7 -30 -16 -48 -19 -21 -5 -33 -13 -35 -26 -10 -60 -24
-95 -38 -95 -17 0 -34 39 -34 81 0 31 -4 34 -62 44 -32 5 -38 10 -38 30 0 19
7 26 38 34 20 6 42 11 48 11 6 0 14 18 17 40 6 44 23 73 41 67 6 -2 15 -26 20
-54z m2886 -57 c36 -14 41 -20 38 -43 -2 -21 -10 -29 -35 -35 -17 -5 -41 -20
-52 -34 l-21 -27 -20 26 c-11 14 -36 31 -54 37 -19 6 -36 19 -38 28 -6 20 14
42 36 42 18 0 66 56 66 78 1 10 9 1 20 -19 13 -25 32 -42 60 -53z m-1525 -192
c22 -14 48 -36 58 -50 l18 -24 -656 0 c-360 0 -655 4 -655 8 0 15 54 61 90 76
30 13 115 15 570 16 l536 0 39 -26z m1015 -20 c0 -56 -19 -107 -59 -160 -69
-92 -70 -92 -312 -90 l-212 2 -52 56 c-56 60 -85 125 -85 190 l0 38 360 0 360
0 0 -36z m324 -30 c21 -20 20 -53 -1 -76 -32 -36 -93 -15 -93 32 0 35 23 60
55 60 13 0 31 -7 39 -16z m429 -192 c106 -57 177 -205 178 -367 0 -141 -46
-238 -143 -300 l-47 -30 0 -185 c0 -102 4 -252 9 -335 5 -82 12 -280 16 -440
l6 -290 -32 -32 c-42 -43 -85 -50 -142 -25 -70 30 -82 66 -74 216 26 491 42
1020 33 1057 -4 15 -26 38 -55 57 -53 34 -88 79 -124 157 -32 69 -31 221 1
310 45 124 120 207 209 231 58 16 103 9 165 -24z m-3244 4 c7 -8 11 -37 9 -68
l-3 -53 -197 -3 -198 -2 0 63 c0 35 3 67 7 70 3 4 88 7 188 7 145 0 185 -3
194 -14z m481 5 c0 -20 -82 -64 -128 -68 -41 -4 -53 -1 -89 26 -24 17 -43 36
-43 41 0 6 51 10 130 10 72 0 130 -4 130 -9z m966 -50 c58 -26 94 -77 94 -132
l0 -44 -225 -222 c-124 -123 -230 -223 -236 -223 -11 0 -101 84 -382 352 -103
99 -107 105 -107 145 0 33 7 50 32 79 56 63 57 63 438 63 316 1 348 -1 386
-18z m-1436 -218 c6 -27 27 -77 45 -113 19 -36 39 -77 44 -93 6 -16 11 -147
11 -318 1 -408 17 -389 -326 -389 l-226 0 -34 34 -35 35 3 319 3 318 32 60
c18 32 48 89 65 126 l33 68 186 0 187 0 12 -47z m2240 -8 c0 -3 -67 -73 -150
-155 l-150 -150 0 155 0 155 150 0 c83 0 150 -2 150 -5z m325 -14 c52 -23 111
-89 143 -160 25 -54 26 -63 26 -256 l1 -200 -82 -3 -81 -3 -4 255 c-3 253 -3
255 -27 280 -13 14 -42 29 -65 33 -37 8 -41 12 -44 41 l-3 32 48 0 c26 0 66
-9 88 -19z m-2077 -21 c17 0 45 -16 76 -42 l50 -43 -40 -7 c-21 -4 -64 -7 -95
-7 l-56 -1 -6 -127 c-4 -71 -7 -401 -7 -734 l0 -606 22 -28 c43 -55 41 -55
638 -55 599 0 584 -1 629 56 21 26 21 33 21 624 0 328 -3 658 -7 733 l-6 137
-86 0 c-117 0 -128 9 -74 60 38 36 47 40 93 40 67 0 115 -21 140 -62 20 -32
20 -48 20 -787 0 -734 -1 -756 -20 -796 -13 -26 -34 -49 -59 -63 l-40 -22
-630 2 c-618 3 -630 3 -658 24 -15 11 -38 40 -51 65 l-22 44 2 762 3 761 25
27 c29 31 79 56 98 50 8 -3 26 -5 40 -5z m1982 -365 c0 -228 -1 -235 -20 -235
-19 0 -20 7 -20 235 0 228 1 235 20 235 19 0 20 -7 20 -235z m-219 192 c43
-33 44 -39 47 -557 2 -272 1 -596 -3 -719 -7 -217 -8 -225 -31 -248 -29 -29
-82 -31 -118 -2 l-26 20 0 711 c0 635 2 714 16 744 30 64 73 82 115 51z m-776
-18 c25 -12 45 -23 45 -25 0 -2 -32 -4 -72 -4 l-71 0 23 25 c13 14 25 25 27
25 2 0 23 -9 48 -21z m-760 -9 c18 -20 17 -20 -43 -20 -34 0 -62 2 -62 5 0 8
54 34 71 35 9 0 24 -9 34 -20z m-65 -239 c0 -132 5 -145 62 -139 l33 3 3 128
3 127 54 0 53 0 103 -100 102 -101 102 101 c96 94 104 100 144 100 l41 0 0
-114 c0 -63 3 -121 6 -130 4 -11 19 -16 44 -16 25 0 40 5 44 16 3 9 6 67 6
130 l0 114 85 0 85 0 0 -595 c0 -582 0 -595 -20 -615 -19 -19 -33 -20 -533
-20 -427 0 -516 2 -533 14 -18 14 -19 34 -22 615 l-2 601 70 0 70 0 0 -119z
m2890 -91 c24 -24 25 -38 4 -68 -18 -26 -50 -28 -76 -5 -22 20 -23 51 -1 75
21 24 48 23 73 -2z m-802 -579 c2 -353 1 -386 -15 -403 -16 -18 -30 -19 -158
-17 -77 1 -146 7 -152 12 -10 7 -13 99 -13 397 0 212 3 390 8 394 4 4 79 6
167 4 l160 -3 3 -384z m787 207 c2 -7 6 -34 10 -59 5 -43 8 -46 43 -55 27 -7
38 -15 40 -31 3 -18 -4 -24 -37 -34 -36 -11 -41 -16 -47 -48 -11 -65 -15 -72
-37 -69 -19 3 -22 10 -25 56 -3 51 -3 52 -36 52 -40 0 -69 20 -64 46 2 14 16
21 51 28 46 8 47 9 47 45 0 53 43 107 55 69z m-3732 -270 c3 -68 9 -134 13
-147 11 -38 -8 -19 -65 64 -61 88 -71 126 -42 173 17 26 27 32 54 32 l34 0 6
-122z m287 111 c27 -6 50 -15 50 -20 0 -17 -47 -54 -105 -83 -31 -16 -72 -47
-92 -70 -20 -23 -32 -32 -28 -21 4 11 10 62 13 113 l4 92 54 0 c29 0 76 -5
104 -11z m-445 -34 c-63 -84 -54 -138 43 -251 37 -43 85 -104 106 -134 l39
-55 -44 36 c-24 20 -75 56 -114 81 -80 51 -143 116 -176 179 -21 42 -59 144
-59 160 0 13 30 17 134 18 l98 1 -27 -35z m530 -202 c-26 -63 -48 -86 -131
-136 -43 -26 -96 -65 -118 -85 l-39 -37 42 81 c23 45 58 101 78 124 38 44 120
90 161 90 22 0 22 -1 7 -37z m-498 -248 c31 -21 67 -58 91 -92 56 -84 59 -92
21 -56 -19 18 -61 44 -94 58 -33 15 -71 36 -83 48 -23 21 -52 68 -52 83 0 15
68 -9 117 -41z m492 3 c-5 -17 -20 -44 -35 -59 -28 -29 -44 -36 -134 -64 -30
-9 -72 -28 -93 -41 l-38 -25 12 23 c35 65 86 131 117 150 35 21 116 45 159 47
20 1 21 -2 12 -31z m2571 -108 c0 -14 -7 -36 -16 -48 -14 -21 -22 -22 -148
-22 -89 0 -136 4 -144 12 -13 13 -16 70 -4 82 4 4 76 6 159 4 l153 -3 0 -25z"/>
<path d="M4835 7360 c10 -11 43 -34 72 -51 66 -38 85 -65 81 -116 l-3 -38 -92
4 c-51 2 -93 1 -93 -2 0 -3 30 -22 68 -43 37 -20 81 -48 97 -60 17 -13 50 -32
73 -42 l43 -19 -93 -6 c-51 -3 -104 -10 -118 -15 -22 -8 -21 -10 21 -16 25 -4
74 -20 110 -37 108 -52 99 -69 99 175 0 211 0 214 -22 219 -31 9 -38 1 -38
-42 0 -71 -12 -131 -26 -131 -10 0 -14 16 -14 61 0 54 2 60 15 49 13 -11 15
-6 15 32 l0 45 -72 21 c-40 11 -88 23 -107 26 -34 6 -34 6 -16 -14z"/>
<path d="M4945 6863 c-69 -16 -125 -36 -120 -42 2 -5 48 -11 102 -15 54 -4
115 -9 136 -12 l37 -6 0 41 0 41 -67 -1 c-38 -1 -77 -3 -88 -6z"/>
<path d="M6772 6088 c-7 -7 -12 -23 -12 -35 0 -18 10 -28 43 -42 51 -22 112
-87 122 -129 7 -35 28 -46 56 -32 22 12 23 29 8 85 -15 54 -52 101 -107 136
-48 31 -90 37 -110 17z"/>
<path d="M6782 4548 c-8 -8 -12 -55 -12 -144 0 -114 3 -135 19 -155 18 -22 19
-22 45 -6 26 17 26 18 26 148 0 72 -5 139 -10 150 -12 21 -50 25 -68 7z"/>
<path d="M4380 6026 c-27 -30 -23 -45 25 -81 31 -24 39 -26 58 -16 16 8 97 11
282 9 l260 -3 -49 -52 c-27 -29 -73 -65 -103 -79 -50 -25 -61 -26 -139 -21
-65 5 -96 12 -131 32 -25 14 -48 25 -50 25 -8 0 136 -152 178 -188 l38 -33
176 168 c99 95 179 179 182 192 5 19 0 30 -21 48 l-27 23 -328 0 -328 0 -23
-24z"/>
<path d="M3506 5701 c-25 -28 -13 -56 37 -83 l42 -23 3 -170 2 -170 -157 0
-158 0 -3 -62 -3 -63 204 0 204 0 12 24 c10 17 12 79 9 242 -4 252 -6 260 -93
300 -61 29 -77 30 -99 5z"/>
<path d="M4831 5260 c-23 -17 -47 -41 -53 -55 -9 -20 -14 -22 -35 -14 -74 28
-164 -3 -238 -82 -72 -77 -90 -125 -90 -239 0 -81 4 -103 27 -152 71 -153 224
-235 378 -204 138 29 244 141 257 273 l6 54 -109 -3 c-101 -3 -109 -4 -109
-23 0 -17 8 -20 58 -23 31 -2 57 -6 57 -10 0 -4 -14 -31 -30 -59 -34 -60 -83
-96 -152 -113 -169 -42 -333 169 -273 350 23 68 88 136 141 146 51 9 68 -4 76
-61 8 -55 13 -63 36 -49 33 20 80 125 92 206 7 43 10 81 8 83 -3 3 -24 -9 -47
-25z"/>
<path d="M6147 5024 c-4 -4 -7 -16 -7 -26 0 -17 8 -18 98 -16 89 3 97 5 97 23
0 18 -8 20 -90 23 -50 1 -94 0 -98 -4z"/>
<path d="M2581 4649 c-67 -27 -69 -111 -2 -139 84 -35 143 93 61 135 -16 8
-30 15 -32 14 -2 0 -14 -5 -27 -10z"/>
<path d="M7623 4650 c-49 -20 -59 -96 -16 -130 49 -38 113 -4 113 60 0 54 -48
89 -97 70z"/>
<path d="M2626 4377 c-19 -14 -18 -17 18 -122 38 -110 81 -203 144 -312 l36
-63 63 0 c35 0 63 4 63 10 0 5 -14 32 -30 59 -42 67 -127 249 -164 351 l-32
85 -39 3 c-23 2 -48 -3 -59 -11z"/>
<path d="M7534 4379 c-5 -8 -25 -54 -45 -104 -41 -101 -141 -306 -170 -347
-30 -41 -24 -48 40 -48 54 0 62 3 86 31 58 69 217 441 197 461 -4 4 -28 11
-54 14 -33 5 -48 3 -54 -7z"/>
<path d="M2478 4063 c-27 -30 -80 -144 -74 -159 7 -19 206 -21 206 -1 0 17
-93 170 -106 174 -6 2 -18 -4 -26 -14z"/>
<path d="M7743 4072 c-16 -10 -103 -153 -103 -169 0 -16 195 -19 205 -3 8 12
-43 125 -71 157 -11 13 -24 20 -31 15z"/>
<path d="M2172 3704 c-30 -20 -30 -68 0 -88 20 -14 161 -16 1310 -16 l1287 0
15 22 c21 30 20 54 -4 78 -20 20 -33 20 -1303 20 -1145 0 -1285 -2 -1305 -16z"/>
<path d="M4981 3693 c-23 -28 -20 -59 7 -81 13 -10 337 -12 1594 -10 1564 3
1577 3 1592 23 21 28 20 42 -9 70 l-24 25 -1570 0 -1570 0 -20 -27z"/>
<path d="M2177 3434 c-4 -4 -7 -154 -7 -334 0 -240 3 -329 12 -338 9 -9 73
-12 225 -12 l213 0 0 80 0 79 -137 3 -138 3 -2 260 -2 260 -78 3 c-44 1 -82 0
-86 -4z"/>
<path d="M3043 3428 c-5 -7 -15 -26 -21 -43 -6 -16 -66 -162 -132 -323 -66
-162 -118 -298 -115 -303 4 -5 41 -9 84 -9 l79 0 22 60 22 60 138 0 137 0 22
-60 22 -60 90 0 c61 0 89 4 89 12 0 6 -62 161 -137 345 l-138 333 -76 0 c-50
0 -80 -4 -86 -12z m85 -416 c-44 -2 -82 -1 -84 1 -3 2 14 53 37 112 l42 108
43 -109 42 -109 -80 -3z"/>
<path d="M3766 3425 c-114 -41 -171 -148 -131 -250 26 -70 90 -113 235 -160
65 -21 90 -40 90 -70 0 -65 -128 -82 -229 -30 l-53 26 -22 -20 c-12 -12 -32
-39 -44 -60 l-22 -39 26 -21 c74 -58 282 -76 379 -32 124 55 173 175 118 284
-22 43 -81 79 -182 112 -84 27 -141 60 -141 83 0 4 6 16 13 26 22 31 106 33
193 6 41 -13 77 -20 80 -17 7 7 35 140 30 144 -1 1 -28 9 -61 18 -74 19 -226
19 -279 0z"/>
<path d="M4297 3433 c-4 -3 -7 -37 -7 -75 l0 -68 95 0 95 0 2 -267 3 -268 83
-3 82 -3 0 271 0 270 100 0 101 0 -3 73 -3 72 -271 3 c-149 1 -273 -1 -277 -5z"/>
<path d="M5305 3427 c-3 -6 -4 -161 -3 -342 l3 -330 83 -3 83 -3 -3 190 c-2
104 -2 189 -1 188 0 -1 19 -36 40 -77 62 -117 95 -174 107 -182 6 -4 44 -8 84
-8 90 0 96 5 172 148 l55 104 3 -181 2 -181 80 0 c71 0 79 2 85 21 4 11 3 166
-1 345 l-7 324 -88 0 c-81 0 -90 -2 -103 -22 -8 -13 -54 -108 -102 -213 -47
-104 -87 -191 -88 -192 -2 -2 -44 88 -96 200 -51 111 -97 208 -103 215 -13 17
-196 17 -202 -1z"/>
<path d="M6340 3095 l0 -345 240 0 240 0 0 80 0 80 -155 0 -155 0 0 60 0 60
115 0 115 0 0 70 0 69 -112 3 -113 3 -3 58 -3 57 146 0 145 0 0 75 0 75 -230
0 -230 0 0 -345z"/>
<path d="M7230 3416 c-14 -37 -130 -323 -203 -498 -36 -86 -63 -159 -59 -162
3 -3 42 -6 87 -6 l83 0 22 60 22 60 138 0 137 0 26 -60 26 -60 85 0 c47 0 86
4 86 9 0 5 -53 139 -118 298 -66 158 -127 309 -137 336 l-18 47 -84 0 c-79 0
-84 -1 -93 -24z m127 -286 c17 -47 34 -93 38 -102 6 -16 -1 -18 -74 -18 -45 0
-81 3 -81 8 0 19 76 210 81 204 3 -4 20 -45 36 -92z"/>
<path d="M7865 3427 c-3 -6 -4 -161 -3 -342 l3 -330 223 -3 222 -2 0 80 0 80
-140 0 -140 0 0 265 0 265 -80 0 c-56 0 -82 -4 -85 -13z"/>
<path d="M2785 2555 c-44 -43 -23 -105 40 -121 56 -14 107 53 80 105 -24 48
-81 56 -120 16z"/>
<path d="M7382 2573 c-7 -3 -19 -18 -28 -34 -12 -25 -13 -34 -2 -57 19 -38 62
-57 97 -42 53 21 63 77 23 123 -14 16 -61 22 -90 10z"/>
<path d="M3137 2552 c-22 -24 -21 -65 1 -85 17 -16 170 -17 1994 -17 1901 0
1976 1 1991 18 24 26 21 68 -5 86 -20 14 -226 16 -1994 16 -1897 0 -1972 -1
-1987 -18z"/>
<path d="M3831 2284 c-23 -29 -21 -60 7 -81 22 -18 35 -16 66 8 41 32 28 81
-26 94 -20 5 -30 1 -47 -21z"/>
<path d="M5042 2293 c-34 -29 -37 -66 -9 -98 33 -38 81 -39 114 -1 28 33 29
56 2 90 -25 31 -76 35 -107 9z"/>
<path d="M6372 2298 c-36 -18 -40 -57 -8 -85 33 -28 50 -29 76 -3 32 32 25 66
-17 89 -25 13 -21 13 -51 -1z"/>
<path d="M4092 2284 c-28 -20 -29 -65 -1 -90 20 -18 43 -19 348 -22 320 -3
328 -3 354 18 26 21 34 53 19 76 -20 31 -54 34 -374 34 -277 0 -327 -2 -346
-16z"/>
<path d="M5385 2275 c-30 -29 -31 -45 -6 -76 l19 -24 380 -3 c352 -2 380 -1
400 15 34 30 37 59 8 88 l-25 25 -376 0 -376 0 -24 -25z"/>
</g>
</svg>
